<mxfile host="app.diagrams.net" modified="2022-12-02T03:48:31.191Z" agent="5.0 (Macintosh; Intel Mac OS X 10_15_7) AppleWebKit/537.36 (KHTML, like Gecko) Chrome/107.0.0.0 Safari/537.36" version="20.6.0" etag="ABpsDM0kB0k0k5zToSzt" type="github">
  <diagram id="KecFklK4j0eWl7QnXn8D" name="第 1 页">
    <mxGraphModel dx="893" dy="589" grid="1" gridSize="10" guides="1" tooltips="1" connect="1" arrows="1" fold="1" page="1" pageScale="1" pageWidth="827" pageHeight="1169" math="0" shadow="0">
      <root>
        <mxCell id="0" />
        <mxCell id="1" parent="0" />
        <mxCell id="OfO5TF3sxZFxJK7zBCTe-1" value="" style="endArrow=none;dashed=1;html=1;dashPattern=1 3;strokeWidth=2;rounded=0;" edge="1" parent="1">
          <mxGeometry width="50" height="50" relative="1" as="geometry">
            <mxPoint x="200" y="440" as="sourcePoint" />
            <mxPoint x="680" y="440" as="targetPoint" />
          </mxGeometry>
        </mxCell>
        <mxCell id="OfO5TF3sxZFxJK7zBCTe-2" value="前端" style="text;html=1;align=center;verticalAlign=middle;resizable=0;points=[];autosize=1;strokeColor=none;fillColor=none;" vertex="1" parent="1">
          <mxGeometry x="150" y="390" width="50" height="30" as="geometry" />
        </mxCell>
        <mxCell id="OfO5TF3sxZFxJK7zBCTe-4" value="" style="swimlane;startSize=0;" vertex="1" parent="1">
          <mxGeometry x="200" y="380" width="480" height="50" as="geometry" />
        </mxCell>
        <mxCell id="OfO5TF3sxZFxJK7zBCTe-5" value="POST请求" style="whiteSpace=wrap;html=1;fillColor=#d5e8d4;strokeColor=#82b366;" vertex="1" parent="OfO5TF3sxZFxJK7zBCTe-4">
          <mxGeometry x="110" y="10" width="120" height="30" as="geometry" />
        </mxCell>
        <mxCell id="OfO5TF3sxZFxJK7zBCTe-6" value="Ajax交互" style="text;html=1;align=center;verticalAlign=middle;resizable=0;points=[];autosize=1;strokeColor=none;fillColor=none;" vertex="1" parent="OfO5TF3sxZFxJK7zBCTe-4">
          <mxGeometry x="30" y="10" width="70" height="30" as="geometry" />
        </mxCell>
        <mxCell id="OfO5TF3sxZFxJK7zBCTe-7" value="GET请求" style="whiteSpace=wrap;html=1;fillColor=#d5e8d4;strokeColor=#82b366;" vertex="1" parent="OfO5TF3sxZFxJK7zBCTe-4">
          <mxGeometry x="250" y="10" width="120" height="30" as="geometry" />
        </mxCell>
        <mxCell id="OfO5TF3sxZFxJK7zBCTe-75" value="" style="edgeStyle=orthogonalEdgeStyle;rounded=0;orthogonalLoop=1;jettySize=auto;html=1;entryX=0.75;entryY=0;entryDx=0;entryDy=0;" edge="1" parent="1" source="OfO5TF3sxZFxJK7zBCTe-8" target="OfO5TF3sxZFxJK7zBCTe-74">
          <mxGeometry relative="1" as="geometry" />
        </mxCell>
        <mxCell id="OfO5TF3sxZFxJK7zBCTe-8" value="接口层" style="text;html=1;align=center;verticalAlign=middle;resizable=0;points=[];autosize=1;strokeColor=none;fillColor=none;" vertex="1" parent="1">
          <mxGeometry x="140" y="474.5" width="60" height="30" as="geometry" />
        </mxCell>
        <mxCell id="OfO5TF3sxZFxJK7zBCTe-14" value="" style="endArrow=none;dashed=1;html=1;dashPattern=1 3;strokeWidth=2;rounded=0;" edge="1" parent="1">
          <mxGeometry width="50" height="50" relative="1" as="geometry">
            <mxPoint x="200" y="590" as="sourcePoint" />
            <mxPoint x="680" y="590" as="targetPoint" />
          </mxGeometry>
        </mxCell>
        <mxCell id="OfO5TF3sxZFxJK7zBCTe-15" value="" style="swimlane;startSize=0;" vertex="1" parent="1">
          <mxGeometry x="200" y="474.5" width="470" height="95.5" as="geometry" />
        </mxCell>
        <mxCell id="OfO5TF3sxZFxJK7zBCTe-16" value="订单" style="whiteSpace=wrap;html=1;fillColor=#008a00;strokeColor=#005700;fontColor=#ffffff;" vertex="1" parent="OfO5TF3sxZFxJK7zBCTe-15">
          <mxGeometry x="30" y="10" width="40" height="30" as="geometry" />
        </mxCell>
        <mxCell id="OfO5TF3sxZFxJK7zBCTe-18" value="广告计划" style="whiteSpace=wrap;html=1;fillColor=#e51400;strokeColor=#B20000;fontColor=#ffffff;" vertex="1" parent="OfO5TF3sxZFxJK7zBCTe-15">
          <mxGeometry x="30" y="55.5" width="70" height="30" as="geometry" />
        </mxCell>
        <mxCell id="OfO5TF3sxZFxJK7zBCTe-19" value="广告组" style="whiteSpace=wrap;html=1;fillColor=#f0a30a;fontColor=#000000;strokeColor=#BD7000;" vertex="1" parent="OfO5TF3sxZFxJK7zBCTe-15">
          <mxGeometry x="320" y="10" width="70" height="30" as="geometry" />
        </mxCell>
        <mxCell id="OfO5TF3sxZFxJK7zBCTe-21" value="报表" style="whiteSpace=wrap;html=1;fillColor=#f0a30a;fontColor=#000000;strokeColor=#BD7000;" vertex="1" parent="OfO5TF3sxZFxJK7zBCTe-15">
          <mxGeometry x="240" y="10" width="70" height="30" as="geometry" />
        </mxCell>
        <mxCell id="OfO5TF3sxZFxJK7zBCTe-22" value="登录" style="whiteSpace=wrap;html=1;fillColor=#008a00;fontColor=#ffffff;strokeColor=#005700;" vertex="1" parent="OfO5TF3sxZFxJK7zBCTe-15">
          <mxGeometry x="80" y="10" width="70" height="30" as="geometry" />
        </mxCell>
        <mxCell id="OfO5TF3sxZFxJK7zBCTe-23" value="白名单管理" style="whiteSpace=wrap;html=1;fillColor=#e51400;fontColor=#ffffff;strokeColor=#B20000;" vertex="1" parent="OfO5TF3sxZFxJK7zBCTe-15">
          <mxGeometry x="110" y="55.5" width="70" height="30" as="geometry" />
        </mxCell>
        <mxCell id="OfO5TF3sxZFxJK7zBCTe-24" value="操作日志" style="whiteSpace=wrap;html=1;fillColor=#e51400;fontColor=#ffffff;strokeColor=#B20000;" vertex="1" parent="OfO5TF3sxZFxJK7zBCTe-15">
          <mxGeometry x="190" y="55.5" width="70" height="30" as="geometry" />
        </mxCell>
        <mxCell id="OfO5TF3sxZFxJK7zBCTe-41" value="物料" style="whiteSpace=wrap;html=1;fillColor=#f0a30a;fontColor=#000000;strokeColor=#BD7000;" vertex="1" parent="OfO5TF3sxZFxJK7zBCTe-15">
          <mxGeometry x="160" y="10" width="70" height="30" as="geometry" />
        </mxCell>
        <mxCell id="OfO5TF3sxZFxJK7zBCTe-26" value="权限控制" style="whiteSpace=wrap;html=1;fillColor=#f0a30a;fontColor=#000000;strokeColor=#BD7000;" vertex="1" parent="1">
          <mxGeometry x="700" y="474.5" width="30" height="115.5" as="geometry" />
        </mxCell>
        <mxCell id="OfO5TF3sxZFxJK7zBCTe-27" value="日志记录" style="whiteSpace=wrap;html=1;fillColor=#f0a30a;fontColor=#000000;strokeColor=#BD7000;" vertex="1" parent="1">
          <mxGeometry x="740" y="474.5" width="30" height="625.5" as="geometry" />
        </mxCell>
        <mxCell id="OfO5TF3sxZFxJK7zBCTe-29" value="" style="swimlane;startSize=0;fillColor=#e51400;fontColor=#ffffff;strokeColor=#B20000;" vertex="1" parent="1">
          <mxGeometry x="790" y="474.5" width="200" height="625.5" as="geometry" />
        </mxCell>
        <mxCell id="OfO5TF3sxZFxJK7zBCTe-25" value="监控告警" style="whiteSpace=wrap;html=1;fillColor=#e51400;fontColor=#ffffff;strokeColor=#B20000;" vertex="1" parent="OfO5TF3sxZFxJK7zBCTe-29">
          <mxGeometry width="30" height="625.5" as="geometry" />
        </mxCell>
        <mxCell id="OfO5TF3sxZFxJK7zBCTe-72" value="" style="edgeStyle=orthogonalEdgeStyle;rounded=0;orthogonalLoop=1;jettySize=auto;html=1;" edge="1" parent="1" source="OfO5TF3sxZFxJK7zBCTe-30" target="OfO5TF3sxZFxJK7zBCTe-71">
          <mxGeometry relative="1" as="geometry" />
        </mxCell>
        <mxCell id="OfO5TF3sxZFxJK7zBCTe-30" value="业务层" style="text;html=1;align=center;verticalAlign=middle;resizable=0;points=[];autosize=1;strokeColor=none;fillColor=none;" vertex="1" parent="1">
          <mxGeometry x="140" y="650" width="60" height="30" as="geometry" />
        </mxCell>
        <mxCell id="OfO5TF3sxZFxJK7zBCTe-31" value="" style="endArrow=none;dashed=1;html=1;dashPattern=1 3;strokeWidth=2;rounded=0;" edge="1" parent="1">
          <mxGeometry width="50" height="50" relative="1" as="geometry">
            <mxPoint x="205" y="1120" as="sourcePoint" />
            <mxPoint x="685" y="1120" as="targetPoint" />
          </mxGeometry>
        </mxCell>
        <mxCell id="OfO5TF3sxZFxJK7zBCTe-32" value="" style="swimlane;startSize=0;fillColor=#f0a30a;fontColor=#000000;strokeColor=#BD7000;" vertex="1" parent="1">
          <mxGeometry x="200" y="620" width="470" height="480" as="geometry" />
        </mxCell>
        <mxCell id="OfO5TF3sxZFxJK7zBCTe-33" value="订单" style="whiteSpace=wrap;html=1;fillColor=#008a00;fontColor=#ffffff;strokeColor=#005700;" vertex="1" parent="OfO5TF3sxZFxJK7zBCTe-32">
          <mxGeometry x="30" y="10" width="40" height="30" as="geometry" />
        </mxCell>
        <mxCell id="OfO5TF3sxZFxJK7zBCTe-34" value="广告计划" style="whiteSpace=wrap;html=1;fillColor=#e51400;fontColor=#ffffff;strokeColor=#B20000;" vertex="1" parent="OfO5TF3sxZFxJK7zBCTe-32">
          <mxGeometry x="36" y="60" width="70" height="30" as="geometry" />
        </mxCell>
        <mxCell id="OfO5TF3sxZFxJK7zBCTe-46" value="" style="edgeStyle=orthogonalEdgeStyle;rounded=0;orthogonalLoop=1;jettySize=auto;html=1;" edge="1" parent="OfO5TF3sxZFxJK7zBCTe-32" source="OfO5TF3sxZFxJK7zBCTe-35" target="OfO5TF3sxZFxJK7zBCTe-45">
          <mxGeometry relative="1" as="geometry" />
        </mxCell>
        <mxCell id="OfO5TF3sxZFxJK7zBCTe-35" value="广告组" style="whiteSpace=wrap;html=1;fillColor=#f0a30a;fontColor=#000000;strokeColor=#BD7000;" vertex="1" parent="OfO5TF3sxZFxJK7zBCTe-32">
          <mxGeometry x="30" y="130" width="70" height="30" as="geometry" />
        </mxCell>
        <mxCell id="OfO5TF3sxZFxJK7zBCTe-55" value="" style="edgeStyle=orthogonalEdgeStyle;rounded=0;orthogonalLoop=1;jettySize=auto;html=1;entryX=0;entryY=0.5;entryDx=0;entryDy=0;" edge="1" parent="OfO5TF3sxZFxJK7zBCTe-32" source="OfO5TF3sxZFxJK7zBCTe-36" target="OfO5TF3sxZFxJK7zBCTe-56">
          <mxGeometry relative="1" as="geometry">
            <mxPoint x="155" y="235" as="targetPoint" />
          </mxGeometry>
        </mxCell>
        <mxCell id="OfO5TF3sxZFxJK7zBCTe-60" style="edgeStyle=orthogonalEdgeStyle;rounded=0;orthogonalLoop=1;jettySize=auto;html=1;entryX=0;entryY=0.5;entryDx=0;entryDy=0;" edge="1" parent="OfO5TF3sxZFxJK7zBCTe-32" source="OfO5TF3sxZFxJK7zBCTe-36" target="OfO5TF3sxZFxJK7zBCTe-59">
          <mxGeometry relative="1" as="geometry">
            <Array as="points">
              <mxPoint x="130" y="235" />
              <mxPoint x="130" y="335" />
            </Array>
          </mxGeometry>
        </mxCell>
        <mxCell id="OfO5TF3sxZFxJK7zBCTe-67" value="" style="edgeStyle=orthogonalEdgeStyle;rounded=0;orthogonalLoop=1;jettySize=auto;html=1;" edge="1" parent="OfO5TF3sxZFxJK7zBCTe-32" source="OfO5TF3sxZFxJK7zBCTe-36" target="OfO5TF3sxZFxJK7zBCTe-66">
          <mxGeometry relative="1" as="geometry" />
        </mxCell>
        <mxCell id="OfO5TF3sxZFxJK7zBCTe-36" value="物料" style="whiteSpace=wrap;html=1;fillColor=#f0a30a;fontColor=#000000;strokeColor=#BD7000;" vertex="1" parent="OfO5TF3sxZFxJK7zBCTe-32">
          <mxGeometry x="30" y="220" width="70" height="30" as="geometry" />
        </mxCell>
        <mxCell id="OfO5TF3sxZFxJK7zBCTe-65" value="" style="edgeStyle=orthogonalEdgeStyle;rounded=0;orthogonalLoop=1;jettySize=auto;html=1;entryX=0;entryY=0.5;entryDx=0;entryDy=0;" edge="1" parent="OfO5TF3sxZFxJK7zBCTe-32" source="OfO5TF3sxZFxJK7zBCTe-37" target="OfO5TF3sxZFxJK7zBCTe-64">
          <mxGeometry relative="1" as="geometry" />
        </mxCell>
        <mxCell id="OfO5TF3sxZFxJK7zBCTe-37" value="报表" style="whiteSpace=wrap;html=1;fillColor=#f0a30a;fontColor=#000000;strokeColor=#BD7000;" vertex="1" parent="OfO5TF3sxZFxJK7zBCTe-32">
          <mxGeometry x="30" y="415" width="70" height="30" as="geometry" />
        </mxCell>
        <mxCell id="OfO5TF3sxZFxJK7zBCTe-38" value="登录" style="whiteSpace=wrap;html=1;fillColor=#008a00;fontColor=#ffffff;strokeColor=#005700;" vertex="1" parent="OfO5TF3sxZFxJK7zBCTe-32">
          <mxGeometry x="80" y="10" width="70" height="30" as="geometry" />
        </mxCell>
        <mxCell id="OfO5TF3sxZFxJK7zBCTe-45" value="列表，新增，编辑，详情，复用相关接口。&lt;br&gt;增加适配精准定向相关参数" style="ellipse;whiteSpace=wrap;html=1;fillColor=#f0a30a;strokeColor=#BD7000;fontColor=#000000;" vertex="1" parent="OfO5TF3sxZFxJK7zBCTe-32">
          <mxGeometry x="160" y="101.88" width="250" height="86.25" as="geometry" />
        </mxCell>
        <mxCell id="OfO5TF3sxZFxJK7zBCTe-52" value="" style="swimlane;startSize=0;" vertex="1" parent="OfO5TF3sxZFxJK7zBCTe-32">
          <mxGeometry x="20" y="50" width="440" height="50" as="geometry" />
        </mxCell>
        <mxCell id="OfO5TF3sxZFxJK7zBCTe-53" value="合约暂无此功能需要新开发" style="text;html=1;align=center;verticalAlign=middle;resizable=0;points=[];autosize=1;strokeColor=none;fillColor=none;" vertex="1" parent="OfO5TF3sxZFxJK7zBCTe-52">
          <mxGeometry x="264" y="10" width="170" height="30" as="geometry" />
        </mxCell>
        <mxCell id="OfO5TF3sxZFxJK7zBCTe-40" value="操作日志" style="whiteSpace=wrap;html=1;fillColor=#e51400;fontColor=#ffffff;strokeColor=#B20000;" vertex="1" parent="OfO5TF3sxZFxJK7zBCTe-52">
          <mxGeometry x="100" y="10" width="70" height="30" as="geometry" />
        </mxCell>
        <mxCell id="OfO5TF3sxZFxJK7zBCTe-39" value="白名单管理" style="whiteSpace=wrap;html=1;fillColor=#e51400;fontColor=#ffffff;strokeColor=#B20000;" vertex="1" parent="OfO5TF3sxZFxJK7zBCTe-52">
          <mxGeometry x="185" y="10" width="70" height="30" as="geometry" />
        </mxCell>
        <mxCell id="OfO5TF3sxZFxJK7zBCTe-56" value="列表，预览，复用相关接口。&lt;br&gt;增加适配精准定向相关参数" style="ellipse;whiteSpace=wrap;html=1;fillColor=#f0a30a;strokeColor=#BD7000;fontColor=#000000;" vertex="1" parent="OfO5TF3sxZFxJK7zBCTe-32">
          <mxGeometry x="180" y="201.88" width="220" height="66.25" as="geometry" />
        </mxCell>
        <mxCell id="OfO5TF3sxZFxJK7zBCTe-59" value="上传，编辑，详情物料逻辑修改&lt;br&gt;1、拆分为根据sku上传及查询、根据模板上传机查询。&lt;br&gt;2、删除时增加判断物料id（合约只保留一份物料，精准为多份）" style="ellipse;whiteSpace=wrap;html=1;fillColor=#f0a30a;strokeColor=#BD7000;fontColor=#000000;" vertex="1" parent="OfO5TF3sxZFxJK7zBCTe-32">
          <mxGeometry x="160" y="280" width="265" height="110" as="geometry" />
        </mxCell>
        <mxCell id="OfO5TF3sxZFxJK7zBCTe-64" value="增加精准各级维度报表" style="ellipse;whiteSpace=wrap;html=1;fillColor=#f0a30a;strokeColor=#BD7000;fontColor=#000000;" vertex="1" parent="OfO5TF3sxZFxJK7zBCTe-32">
          <mxGeometry x="190" y="400" width="140" height="60" as="geometry" />
        </mxCell>
        <mxCell id="OfO5TF3sxZFxJK7zBCTe-66" value="模板查询增加根据平台查询所有" style="ellipse;whiteSpace=wrap;html=1;fillColor=#f0a30a;strokeColor=#BD7000;fontColor=#000000;" vertex="1" parent="OfO5TF3sxZFxJK7zBCTe-32">
          <mxGeometry x="5" y="330" width="120" height="60" as="geometry" />
        </mxCell>
        <mxCell id="OfO5TF3sxZFxJK7zBCTe-79" value="" style="edgeStyle=orthogonalEdgeStyle;rounded=0;orthogonalLoop=1;jettySize=auto;html=1;entryX=0.75;entryY=0;entryDx=0;entryDy=0;" edge="1" parent="1" source="OfO5TF3sxZFxJK7zBCTe-68" target="OfO5TF3sxZFxJK7zBCTe-78">
          <mxGeometry relative="1" as="geometry" />
        </mxCell>
        <mxCell id="OfO5TF3sxZFxJK7zBCTe-68" value="数据层" style="text;html=1;align=center;verticalAlign=middle;resizable=0;points=[];autosize=1;strokeColor=none;fillColor=none;" vertex="1" parent="1">
          <mxGeometry x="140" y="1140" width="60" height="30" as="geometry" />
        </mxCell>
        <mxCell id="OfO5TF3sxZFxJK7zBCTe-71" value="统一业务逻辑，避免根据精准合约标识做逻辑判断" style="shape=document;whiteSpace=wrap;html=1;boundedLbl=1;" vertex="1" parent="1">
          <mxGeometry x="80" y="747.25" width="120" height="80" as="geometry" />
        </mxCell>
        <mxCell id="OfO5TF3sxZFxJK7zBCTe-74" value="接口层可以根据系统标识定制接口进行校验" style="shape=document;whiteSpace=wrap;html=1;boundedLbl=1;" vertex="1" parent="1">
          <mxGeometry x="80" y="530" width="120" height="80" as="geometry" />
        </mxCell>
        <mxCell id="OfO5TF3sxZFxJK7zBCTe-76" value="" style="swimlane;startSize=0;" vertex="1" parent="1">
          <mxGeometry x="200" y="1140" width="470" height="110" as="geometry" />
        </mxCell>
        <mxCell id="OfO5TF3sxZFxJK7zBCTe-77" value="读写数据库" style="whiteSpace=wrap;html=1;fillColor=#f0a30a;fontColor=#000000;strokeColor=#BD7000;" vertex="1" parent="OfO5TF3sxZFxJK7zBCTe-76">
          <mxGeometry x="30" y="29" width="90" height="31" as="geometry" />
        </mxCell>
        <mxCell id="OfO5TF3sxZFxJK7zBCTe-80" value="数据缓存" style="whiteSpace=wrap;html=1;fillColor=#f0a30a;fontColor=#000000;strokeColor=#BD7000;" vertex="1" parent="OfO5TF3sxZFxJK7zBCTe-76">
          <mxGeometry x="140" y="30" width="90" height="31" as="geometry" />
        </mxCell>
        <mxCell id="OfO5TF3sxZFxJK7zBCTe-81" value="事务" style="whiteSpace=wrap;html=1;fillColor=#f0a30a;fontColor=#000000;strokeColor=#BD7000;" vertex="1" parent="OfO5TF3sxZFxJK7zBCTe-76">
          <mxGeometry x="250" y="29" width="90" height="31" as="geometry" />
        </mxCell>
        <mxCell id="OfO5TF3sxZFxJK7zBCTe-94" value="多数据源" style="whiteSpace=wrap;html=1;fillColor=#f0a30a;fontColor=#000000;strokeColor=#BD7000;" vertex="1" parent="OfO5TF3sxZFxJK7zBCTe-76">
          <mxGeometry x="360" y="29" width="90" height="31" as="geometry" />
        </mxCell>
        <mxCell id="OfO5TF3sxZFxJK7zBCTe-78" value="统一使用mybatis框架操作数据库，自定义sql使用xml形式" style="shape=document;whiteSpace=wrap;html=1;boundedLbl=1;" vertex="1" parent="1">
          <mxGeometry x="80" y="1180" width="120" height="80" as="geometry" />
        </mxCell>
        <mxCell id="OfO5TF3sxZFxJK7zBCTe-87" value="" style="swimlane;startSize=0;" vertex="1" parent="1">
          <mxGeometry x="200" y="1290" width="470" height="110" as="geometry" />
        </mxCell>
        <mxCell id="OfO5TF3sxZFxJK7zBCTe-92" value="DspDB" style="shape=datastore;whiteSpace=wrap;html=1;fillColor=#008a00;fontColor=#ffffff;strokeColor=#005700;" vertex="1" parent="OfO5TF3sxZFxJK7zBCTe-87">
          <mxGeometry x="70" y="25" width="60" height="60" as="geometry" />
        </mxCell>
        <mxCell id="OfO5TF3sxZFxJK7zBCTe-93" value="SspDB" style="shape=datastore;whiteSpace=wrap;html=1;fillColor=#008a00;fontColor=#ffffff;strokeColor=#005700;" vertex="1" parent="OfO5TF3sxZFxJK7zBCTe-87">
          <mxGeometry x="154" y="25" width="60" height="60" as="geometry" />
        </mxCell>
        <mxCell id="OfO5TF3sxZFxJK7zBCTe-95" value="ClickHouse" style="shape=datastore;whiteSpace=wrap;html=1;fillColor=#008a00;fontColor=#ffffff;strokeColor=#005700;" vertex="1" parent="OfO5TF3sxZFxJK7zBCTe-87">
          <mxGeometry x="240" y="25" width="60" height="60" as="geometry" />
        </mxCell>
        <mxCell id="OfO5TF3sxZFxJK7zBCTe-96" value="Redis" style="shape=datastore;whiteSpace=wrap;html=1;fillColor=#008a00;fontColor=#ffffff;strokeColor=#005700;" vertex="1" parent="OfO5TF3sxZFxJK7zBCTe-87">
          <mxGeometry x="340" y="25" width="60" height="60" as="geometry" />
        </mxCell>
        <mxCell id="OfO5TF3sxZFxJK7zBCTe-91" value="数据库" style="text;html=1;align=center;verticalAlign=middle;resizable=0;points=[];autosize=1;strokeColor=none;fillColor=none;" vertex="1" parent="1">
          <mxGeometry x="140" y="1290" width="60" height="30" as="geometry" />
        </mxCell>
        <mxCell id="OfO5TF3sxZFxJK7zBCTe-97" value="" style="endArrow=none;dashed=1;html=1;dashPattern=1 3;strokeWidth=2;rounded=0;" edge="1" parent="1">
          <mxGeometry width="50" height="50" relative="1" as="geometry">
            <mxPoint x="200" y="1270" as="sourcePoint" />
            <mxPoint x="680" y="1270" as="targetPoint" />
          </mxGeometry>
        </mxCell>
        <mxCell id="OfO5TF3sxZFxJK7zBCTe-103" style="edgeStyle=orthogonalEdgeStyle;rounded=0;orthogonalLoop=1;jettySize=auto;html=1;entryX=1.004;entryY=0.375;entryDx=0;entryDy=0;entryPerimeter=0;" edge="1" parent="1" source="OfO5TF3sxZFxJK7zBCTe-100" target="OfO5TF3sxZFxJK7zBCTe-32">
          <mxGeometry relative="1" as="geometry">
            <Array as="points">
              <mxPoint x="710" y="800" />
            </Array>
          </mxGeometry>
        </mxCell>
        <mxCell id="OfO5TF3sxZFxJK7zBCTe-100" value="kafka" style="ellipse;shape=cloud;whiteSpace=wrap;html=1;fillColor=#008a00;fontColor=#ffffff;strokeColor=#005700;" vertex="1" parent="1">
          <mxGeometry x="680" y="620" width="60" height="50" as="geometry" />
        </mxCell>
      </root>
    </mxGraphModel>
  </diagram>
</mxfile>
